<?xml version="1.0" standalone="no"?>
<!DOCTYPE svg PUBLIC "-//W3C//DTD SVG 20010904//EN"
 "http://www.w3.org/TR/2001/REC-SVG-20010904/DTD/svg10.dtd">
<svg version="1.0" xmlns="http://www.w3.org/2000/svg"
 width="208.000000pt" height="242.000000pt" viewBox="0 0 208.000000 242.000000"
 preserveAspectRatio="xMidYMid meet">

<g transform="translate(0.000000,242.000000) scale(0.100000,-0.100000)"
fill="#000000" stroke="none">
<path d="M262 2210 c-20 -12 -41 -38 -53 -65 -19 -42 -19 -70 -17 -959 3 -906
3 -915 24 -942 11 -15 33 -37 48 -48 27 -21 36 -21 776 -21 740 0 749 0 776
21 15 11 37 33 48 48 21 27 21 36 24 949 2 1029 7 965 -67 1014 l-34 23 -746
0 c-731 0 -747 0 -779 -20z m1528 -25 c64 -33 60 18 60 -842 l0 -783 -810 0
-810 0 0 781 c0 532 3 787 11 800 5 11 25 29 42 39 31 19 57 20 755 20 622 0
727 -2 752 -15z m-1418 -1772 c37 -33 8 -83 -49 -83 l-33 0 0 50 c0 49 0 50
32 50 17 0 40 -7 50 -17z m108 7 c0 -5 -11 -10 -25 -10 -14 0 -25 -4 -25 -10
0 -5 11 -10 25 -10 14 0 25 -4 25 -10 0 -5 -11 -10 -25 -10 -14 0 -25 -4 -25
-10 0 -5 11 -10 25 -10 14 0 25 -4 25 -10 0 -5 -18 -10 -40 -10 l-40 0 0 50 0
50 40 0 c22 0 40 -4 40 -10z m95 -25 c0 -23 -5 -31 -22 -33 -13 -2 -23 -10
-23 -18 0 -8 -7 -14 -15 -14 -11 0 -15 12 -15 51 l0 50 38 -3 c34 -3 37 -6 37
-33z m93 -15 c17 -41 18 -50 6 -50 -7 0 -14 5 -14 10 0 6 -11 10 -25 10 -14 0
-25 -4 -25 -10 0 -5 -7 -10 -15 -10 -19 0 -19 -2 5 54 12 25 27 46 34 46 7 0
23 -22 34 -50z m119 34 c3 -9 1 -24 -4 -33 -7 -11 -7 -23 -1 -34 7 -13 5 -17
-7 -17 -9 0 -18 7 -21 15 -4 8 -10 15 -15 15 -5 0 -9 -7 -9 -15 0 -8 -7 -15
-15 -15 -11 0 -15 12 -15 50 l0 50 40 0 c28 0 43 -5 47 -16z m103 6 c0 -5 -7
-10 -15 -10 -11 0 -15 -11 -15 -40 0 -29 -4 -40 -15 -40 -11 0 -15 11 -15 40
0 29 -4 40 -15 40 -8 0 -15 5 -15 10 0 6 20 10 45 10 25 0 45 -4 45 -10z m51
-12 l12 -23 10 23 c6 12 18 22 29 22 15 0 18 -8 18 -50 0 -38 -4 -50 -15 -50
-10 0 -15 10 -15 28 -1 25 -2 26 -14 9 -14 -18 -15 -18 -25 0 -9 16 -10 15
-11 -9 0 -18 -5 -28 -15 -28 -11 0 -15 12 -15 50 0 55 19 68 41 28z m169 12
c0 -5 -13 -10 -30 -10 -16 0 -30 -4 -30 -10 0 -5 11 -10 25 -10 14 0 25 -4 25
-10 0 -5 -11 -10 -25 -10 -14 0 -25 -4 -25 -10 0 -5 14 -10 30 -10 17 0 30 -4
30 -10 0 -5 -18 -10 -40 -10 l-40 0 0 50 0 50 40 0 c22 0 40 -4 40 -10z m59
-16 l21 -27 0 27 c0 16 5 26 15 26 11 0 15 -12 15 -50 0 -58 -16 -66 -49 -22
l-20 27 -1 -27 c0 -18 -5 -28 -15 -28 -11 0 -15 12 -15 50 0 58 16 66 49 24z
m151 16 c0 -5 -7 -10 -15 -10 -11 0 -15 -11 -15 -40 0 -29 -4 -40 -15 -40 -11
0 -15 11 -15 40 0 29 -4 40 -15 40 -8 0 -15 5 -15 10 0 6 20 10 45 10 25 0 45
-4 45 -10z m80 -10 c0 -13 7 -20 20 -20 13 0 20 7 20 20 0 11 7 20 15 20 11 0
15 -12 15 -50 0 -38 -4 -50 -15 -50 -8 0 -15 9 -15 20 0 13 -7 20 -20 20 -13
0 -20 -7 -20 -20 0 -11 -4 -20 -10 -20 -5 0 -10 23 -10 50 0 28 5 50 10 50 6
0 10 -9 10 -20z m170 10 c0 -5 -13 -10 -30 -10 -16 0 -30 -4 -30 -10 0 -5 11
-10 25 -10 14 0 25 -4 25 -10 0 -5 -11 -10 -25 -10 -14 0 -25 -4 -25 -10 0 -5
14 -10 30 -10 17 0 30 -4 30 -10 0 -5 -18 -10 -40 -10 l-40 0 0 50 0 50 40 0
c22 0 40 -4 40 -10z m94 -36 c21 -51 18 -61 -13 -42 -17 11 -25 11 -42 0 -12
-7 -23 -11 -26 -9 -9 9 36 97 49 97 7 0 21 -21 32 -46z m122 21 c15 -23 15
-27 0 -50 -12 -19 -25 -25 -51 -25 l-35 0 0 50 0 50 35 0 c26 0 39 -6 51 -25z"/>
<path d="M1005 2013 c-37 -9 -83 -52 -95 -89 -35 -106 63 -207 170 -175 45 13
84 58 95 108 18 87 -81 178 -170 156z"/>
<path d="M928 1660 c-46 -14 -85 -48 -107 -93 -28 -57 -31 -241 -5 -251 9 -3
56 -6 105 -6 l89 0 0 -40 c0 -38 2 -40 30 -40 28 0 30 2 30 40 l0 40 89 0 c49
0 96 3 105 6 26 10 23 194 -5 252 -22 44 -72 85 -120 96 -25 5 -27 3 -55 -91
-16 -53 -34 -98 -41 -100 -7 -3 -24 36 -44 96 -18 56 -36 101 -39 100 -3 0
-17 -4 -32 -9z"/>
<path d="M982 1147 c-49 -52 -13 -137 57 -137 44 0 67 14 79 50 13 36 -1 86
-28 100 -34 18 -85 12 -108 -13z m98 -37 c17 -33 -4 -62 -43 -58 -25 2 -33 8
-35 26 -6 37 5 52 37 52 20 0 34 -7 41 -20z"/>
<path d="M632 1108 c-7 -7 -12 -38 -12 -70 0 -58 0 -58 29 -58 27 0 30 3 33
38 l3 37 108 3 107 3 0 29 0 30 -128 0 c-86 0 -132 -4 -140 -12z"/>
<path d="M1180 1090 l0 -29 108 -3 107 -3 3 -37 c3 -36 5 -38 39 -38 l35 0 -4
54 c-7 84 -10 86 -159 86 l-129 0 0 -30z"/>
<path d="M572 843 l3 -78 75 0 75 0 0 75 0 75 -78 3 -78 3 3 -78z"/>
<path d="M1354 906 c-3 -7 -4 -42 -2 -77 l3 -64 75 0 75 0 3 78 3 77 -76 0
c-54 0 -77 -4 -81 -14z"/>
<path d="M320 379 c0 -24 4 -30 17 -27 22 4 30 38 11 49 -22 15 -28 10 -28
-22z"/>
<path d="M530 395 c0 -9 5 -15 11 -13 6 2 11 8 11 13 0 5 -5 11 -11 13 -6 2
-11 -4 -11 -13z"/>
<path d="M626 385 c-3 -8 -1 -15 4 -15 6 0 10 7 10 15 0 8 -2 15 -4 15 -2 0
-6 -7 -10 -15z"/>
<path d="M730 395 c0 -8 7 -15 15 -15 8 0 15 7 15 15 0 8 -7 15 -15 15 -8 0
-15 -7 -15 -15z"/>
<path d="M1620 380 c0 -5 5 -10 10 -10 6 0 10 5 10 10 0 6 -4 10 -10 10 -5 0
-10 -4 -10 -10z"/>
<path d="M1720 380 c0 -23 5 -30 19 -30 23 0 35 28 20 46 -20 24 -39 16 -39
-16z"/>
</g>
</svg>
