<?xml version="1.0" standalone="no"?>
<!DOCTYPE svg PUBLIC "-//W3C//DTD SVG 20010904//EN"
 "http://www.w3.org/TR/2001/REC-SVG-20010904/DTD/svg10.dtd">
<svg version="1.0" xmlns="http://www.w3.org/2000/svg"
 width="64.000000pt" height="64.000000pt" viewBox="0 0 64.000000 64.000000"
 preserveAspectRatio="xMidYMid meet">

<g transform="translate(0.000000,64.000000) scale(0.100000,-0.100000)"
fill="#000000" stroke="none">
<path d="M88 619 c-16 -9 -18 -33 -18 -270 l0 -260 30 -10 c19 -7 30 -18 30
-30 0 -10 9 -23 19 -29 29 -15 383 -13 404 2 16 12 17 37 15 273 l-3 259 -25
6 c-14 3 -26 14 -28 25 -7 41 -27 45 -221 45 -108 0 -193 -5 -203 -11z m410
-258 c2 -171 -1 -248 -9 -257 -15 -19 -379 -20 -397 -2 -13 13 -18 489 -5 502
4 3 97 5 207 4 l201 -3 3 -244z m57 167 c3 -13 4 -129 3 -258 l-3 -235 -205 0
c-187 0 -205 2 -208 18 -3 16 10 17 157 17 88 0 171 4 185 10 l26 10 0 230 c0
223 1 230 20 230 12 0 22 -9 25 -22z"/>
<path d="M176 484 c-8 -21 -8 -20 9 -38 22 -22 45 -9 45 25 0 24 -4 29 -24 29
-13 0 -27 -7 -30 -16z m42 -17 c2 -10 -3 -17 -12 -17 -10 0 -16 9 -16 21 0 24
23 21 28 -4z"/>
<path d="M308 473 c12 -2 32 -2 45 0 12 2 2 4 -23 4 -25 0 -35 -2 -22 -4z"/>
<path d="M151 417 c-16 -16 -14 -95 3 -104 9 -5 16 -28 18 -58 3 -48 4 -50 33
-50 29 0 30 2 33 50 2 30 9 53 18 58 18 10 19 93 2 104 -19 12 -95 12 -107 0z
m101 -13 c9 -8 -3 -44 -13 -38 -5 3 -9 -29 -9 -70 0 -83 -19 -107 -22 -28 l-2
47 -3 -47 c-6 -76 -23 -55 -23 28 0 41 -4 73 -9 70 -10 -6 -22 30 -13 38 7 8
87 8 94 0z"/>
<path d="M328 423 c23 -2 59 -2 80 0 20 2 1 4 -43 4 -44 0 -61 -2 -37 -4z"/>
<path d="M328 373 c23 -2 59 -2 80 0 20 2 1 4 -43 4 -44 0 -61 -2 -37 -4z"/>
<path d="M328 323 c23 -2 59 -2 80 0 20 2 1 4 -43 4 -44 0 -61 -2 -37 -4z"/>
<path d="M328 273 c23 -2 59 -2 80 0 20 2 1 4 -43 4 -44 0 -61 -2 -37 -4z"/>
<path d="M328 223 c23 -2 59 -2 80 0 20 2 1 4 -43 4 -44 0 -61 -2 -37 -4z"/>
</g>
</svg>
