<?xml version="1.0" standalone="no"?>
<!DOCTYPE svg PUBLIC "-//W3C//DTD SVG 20010904//EN"
 "http://www.w3.org/TR/2001/REC-SVG-20010904/DTD/svg10.dtd">
<svg version="1.0" xmlns="http://www.w3.org/2000/svg"
 width="64.000000pt" height="64.000000pt" viewBox="0 0 64.000000 64.000000"
 preserveAspectRatio="xMidYMid meet">

<g transform="translate(0.000000,64.000000) scale(0.100000,-0.100000)"
fill="#000000" stroke="none">
<path d="M101 506 c-28 -16 -50 -52 -51 -84 0 -30 25 -78 45 -85 19 -8 20 -27
1 -27 -29 0 -76 -50 -76 -81 l0 -29 97 0 c75 0 94 -3 85 -12 -7 -7 -12 -25
-12 -40 l0 -28 130 0 130 0 0 28 c0 15 -5 33 -12 40 -9 9 10 12 85 12 l97 0 0
29 c0 31 -47 81 -76 81 -19 0 -18 19 1 27 19 7 45 55 45 82 0 52 -48 101 -100
101 -38 0 -78 -29 -91 -65 -10 -26 -17 -34 -29 -28 -19 9 -81 9 -100 0 -12 -6
-19 2 -29 28 -20 56 -86 81 -140 51z m104 -31 c50 -49 15 -135 -55 -135 -41 0
-80 39 -80 80 0 41 39 80 80 80 19 0 40 -9 55 -25z m340 0 c16 -15 25 -36 25
-55 0 -19 -9 -40 -25 -55 -15 -16 -36 -25 -55 -25 -19 0 -40 9 -55 25 -16 15
-25 36 -25 55 0 19 9 40 25 55 15 16 36 25 55 25 19 0 40 -9 55 -25z m-170
-80 c50 -49 15 -135 -55 -135 -41 0 -80 39 -80 80 0 41 39 80 80 80 19 0 40
-9 55 -25z m-152 -74 c3 -14 0 -17 -14 -14 -20 5 -24 15 -12 26 11 12 21 8 26
-12z m224 2 c2 -6 -5 -13 -15 -15 -15 -4 -18 -1 -14 14 5 19 23 20 29 1z
m-284 -10 c-7 -2 -19 -2 -25 0 -7 3 -2 5 12 5 14 0 19 -2 13 -5z m340 0 c-7
-2 -19 -2 -25 0 -7 3 -2 5 12 5 14 0 19 -2 13 -5z m-413 -43 c0 -5 7 -10 16
-10 9 0 14 -7 12 -17 -4 -24 -78 -32 -78 -9 0 16 26 46 41 46 5 0 9 -4 9 -10z
m155 -6 c23 -24 13 -39 -26 -39 -24 0 -35 5 -37 18 -2 10 3 17 12 17 9 0 16 5
16 10 0 15 17 12 35 -6z m185 6 c0 -5 7 -10 16 -10 9 0 14 -7 12 -17 -2 -13
-13 -18 -37 -18 -39 0 -49 15 -26 39 18 18 35 21 35 6z m154 -6 c9 -8 16 -22
16 -30 0 -23 -74 -15 -78 9 -2 10 3 17 12 17 9 0 16 5 16 10 0 15 16 12 34 -6z
m-420 -29 c4 -10 -1 -15 -14 -15 -13 0 -18 5 -14 15 4 8 10 15 14 15 4 0 10
-7 14 -15z m340 0 c4 -10 -1 -15 -14 -15 -13 0 -18 5 -14 15 4 8 10 15 14 15
4 0 10 -7 14 -15z m-171 -2 c-7 -2 -19 -2 -25 0 -7 3 -2 5 12 5 14 0 19 -2 13
-5z m-73 -43 c0 -5 7 -10 16 -10 9 0 14 -7 12 -17 -4 -24 -78 -32 -78 -9 0 16
26 46 41 46 5 0 9 -4 9 -10z m154 -6 c9 -8 16 -22 16 -30 0 -23 -74 -15 -78 9
-2 10 3 17 12 17 9 0 16 5 16 10 0 15 16 12 34 -6z m-80 -29 c4 -10 -1 -15
-14 -15 -13 0 -18 5 -14 15 4 8 10 15 14 15 4 0 10 -7 14 -15z"/>
<path d="M104 456 c-10 -8 -16 -18 -11 -22 4 -4 13 -2 19 4 15 15 61 15 76 0
6 -6 15 -8 19 -4 12 11 -27 36 -57 36 -14 0 -35 -6 -46 -14z"/>
<path d="M125 420 c-4 -6 7 -10 25 -10 18 0 29 4 25 10 -3 6 -15 10 -25 10
-10 0 -22 -4 -25 -10z"/>
<path d="M140 380 c0 -5 5 -10 10 -10 6 0 10 5 10 10 0 6 -4 10 -10 10 -5 0
-10 -4 -10 -10z"/>
<path d="M444 456 c-10 -8 -16 -18 -11 -22 4 -4 13 -2 19 4 15 15 61 15 76 0
6 -6 15 -8 19 -4 12 11 -27 36 -57 36 -14 0 -35 -6 -46 -14z"/>
<path d="M465 420 c-4 -6 7 -10 25 -10 18 0 29 4 25 10 -3 6 -15 10 -25 10
-10 0 -22 -4 -25 -10z"/>
<path d="M480 380 c0 -5 5 -10 10 -10 6 0 10 5 10 10 0 6 -4 10 -10 10 -5 0
-10 -4 -10 -10z"/>
<path d="M274 376 c-10 -8 -16 -18 -11 -22 4 -4 13 -2 19 4 15 15 61 15 76 0
6 -6 15 -8 19 -4 12 11 -27 36 -57 36 -14 0 -35 -6 -46 -14z"/>
<path d="M295 340 c-4 -6 7 -10 25 -10 18 0 29 4 25 10 -3 6 -15 10 -25 10
-10 0 -22 -4 -25 -10z"/>
<path d="M310 300 c0 -5 5 -10 10 -10 6 0 10 5 10 10 0 6 -4 10 -10 10 -5 0
-10 -4 -10 -10z"/>
</g>
</svg>
