<?xml version="1.0" standalone="no"?>
<!DOCTYPE svg PUBLIC "-//W3C//DTD SVG 20010904//EN"
 "http://www.w3.org/TR/2001/REC-SVG-20010904/DTD/svg10.dtd">
<svg version="1.0" xmlns="http://www.w3.org/2000/svg"
 width="64.000000pt" height="64.000000pt" viewBox="0 0 64.000000 64.000000"
 preserveAspectRatio="xMidYMid meet">

<g transform="translate(0.000000,64.000000) scale(0.100000,-0.100000)"
fill="#000000" stroke="none">
<path d="M110 533 l-1 -98 -49 -34 -50 -33 0 -179 0 -179 310 0 310 0 0 179 0
179 -50 33 -49 34 -1 98 0 97 -210 0 -210 0 0 -97z m400 -82 l0 -159 -90 -66
c-49 -36 -94 -66 -100 -66 -6 0 -51 30 -100 66 l-90 66 0 159 0 159 190 0 190
0 0 -159z m-402 -116 l-3 -25 -32 22 c-18 13 -33 25 -33 28 0 3 15 15 33 28
l32 22 3 -25 c2 -14 2 -36 0 -50z m476 40 c20 -15 20 -15 0 -30 -51 -40 -54
-40 -54 15 0 55 3 55 54 15z m-414 -146 c0 -13 -123 -198 -132 -199 -5 0 -8
70 -8 155 l0 155 70 -51 c39 -28 70 -55 70 -60z m440 -44 c0 -85 -3 -155 -7
-155 -10 1 -133 186 -133 199 0 7 124 107 138 110 1 1 2 -69 2 -154z m-227
-12 l62 45 63 -94 62 -94 -250 0 -250 0 62 94 63 94 63 -45 63 -44 62 44z"/>
<path d="M160 565 l0 -25 160 0 160 0 0 25 0 25 -160 0 -160 0 0 -25z m233 -2
c-40 -2 -106 -2 -145 0 -40 1 -8 3 72 3 80 0 112 -2 73 -3z"/>
<path d="M160 470 l0 -60 60 0 60 0 0 39 c0 25 5 41 15 45 8 3 15 10 15 17 0
6 -7 9 -15 5 -8 -3 -15 -1 -15 4 0 6 -27 10 -60 10 l-60 0 0 -60z m100 31 c0
-17 -29 -33 -50 -26 -24 8 -27 -7 -5 -25 12 -10 19 -10 27 -2 16 16 28 15 28
-3 0 -11 -11 -15 -40 -15 l-40 0 0 40 0 40 40 0 c22 0 40 -4 40 -9z"/>
<path d="M330 510 c0 -6 32 -10 75 -10 43 0 75 4 75 10 0 6 -32 10 -75 10 -43
0 -75 -4 -75 -10z"/>
<path d="M330 480 c0 -6 32 -10 75 -10 43 0 75 4 75 10 0 6 -32 10 -75 10 -43
0 -75 -4 -75 -10z"/>
<path d="M330 450 c0 -5 20 -10 45 -10 25 0 45 5 45 10 0 6 -20 10 -45 10 -25
0 -45 -4 -45 -10z"/>
<path d="M160 340 l0 -60 60 0 60 0 0 60 0 60 -60 0 -60 0 0 -60z m100 0 l0
-40 -40 0 -40 0 0 40 0 40 40 0 40 0 0 -40z"/>
<path d="M330 380 c0 -6 32 -10 75 -10 43 0 75 4 75 10 0 6 -32 10 -75 10 -43
0 -75 -4 -75 -10z"/>
<path d="M330 350 c0 -6 32 -10 75 -10 43 0 75 4 75 10 0 6 -32 10 -75 10 -43
0 -75 -4 -75 -10z"/>
<path d="M330 320 c0 -5 20 -10 45 -10 25 0 45 5 45 10 0 6 -20 10 -45 10 -25
0 -45 -4 -45 -10z"/>
</g>
</svg>
