<?xml version="1.0" standalone="no"?>
<!DOCTYPE svg PUBLIC "-//W3C//DTD SVG 20010904//EN"
 "http://www.w3.org/TR/2001/REC-SVG-20010904/DTD/svg10.dtd">
<svg version="1.0" xmlns="http://www.w3.org/2000/svg"
 width="50.000000pt" height="50.000000pt" viewBox="0 0 50.000000 50.000000"
 preserveAspectRatio="xMidYMid meet">

<g transform="translate(0.000000,50.000000) scale(0.100000,-0.100000)"
fill="#000000" stroke="none">
<path d="M196 481 c-29 -32 -32 -94 -7 -134 l21 -34 -38 -16 c-36 -15 -35 -15
78 -15 l115 -1 -36 17 -36 17 18 30 c19 30 24 79 13 110 -8 20 -56 45 -87 45
-13 0 -32 -9 -41 -19z"/>
<path d="M394 335 c-9 -23 2 -43 27 -47 12 -2 24 -9 26 -15 4 -10 -47 -13
-219 -15 -203 -3 -223 -5 -226 -20 -3 -17 14 -18 247 -18 213 0 251 2 251 15
0 7 -6 18 -13 22 -12 8 -30 40 -41 76 -7 21 -44 23 -52 2z m36 -15 c0 -5 -4
-10 -10 -10 -5 0 -10 5 -10 10 0 6 5 10 10 10 6 0 10 -4 10 -10z"/>
<path d="M10 194 c0 -14 35 -64 46 -64 6 0 16 11 22 25 l12 25 160 0 160 0 12
-25 c6 -14 16 -25 22 -25 11 0 46 50 46 64 0 3 -108 6 -240 6 -132 0 -240 -3
-240 -6z"/>
<path d="M97 153 c-3 -5 0 -39 7 -78 l11 -70 135 0 135 0 12 65 c7 36 10 71 8
78 -3 9 -43 12 -154 12 -82 0 -152 -3 -154 -7z"/>
</g>
</svg>
