<?xml version="1.0" standalone="no"?>
<!DOCTYPE svg PUBLIC "-//W3C//DTD SVG 20010904//EN"
 "http://www.w3.org/TR/2001/REC-SVG-20010904/DTD/svg10.dtd">
<svg version="1.0" xmlns="http://www.w3.org/2000/svg"
 width="512.000000pt" height="512.000000pt" viewBox="0 0 512.000000 512.000000"
 preserveAspectRatio="xMidYMid meet">

<g transform="translate(0.000000,512.000000) scale(0.100000,-0.100000)"
fill="#000000" stroke="none">
<path d="M2180 4949 c-29 -12 -67 -45 -83 -74 -8 -13 -14 -103 -17 -252 l-5
-233 -33 -32 c-28 -28 -39 -33 -82 -33 -43 0 -54 5 -82 33 -33 32 -33 33 -38
152 l-5 120 -66 -50 c-164 -123 -301 -316 -359 -507 l-21 -71 -46 -5 c-49 -5
-85 -27 -117 -71 -16 -20 -21 -42 -21 -86 0 -63 16 -95 69 -134 27 -21 32 -21
1126 -21 1094 0 1099 0 1126 21 53 39 69 71 69 134 0 44 -5 66 -21 86 -32 44
-68 66 -118 71 l-45 6 -17 56 c-55 193 -197 397 -364 523 l-65 50 -5 -121 c-5
-120 -5 -121 -38 -153 -28 -28 -39 -33 -82 -33 -43 0 -54 5 -82 33 l-33 32 -5
234 c-5 257 -6 260 -74 310 -25 19 -43 21 -234 23 -124 1 -217 -2 -232 -8z"/>
<path d="M1523 3208 c3 -193 8 -245 24 -303 30 -104 65 -185 118 -265 48 -76
172 -205 224 -236 l31 -18 0 -191 c0 -178 -1 -194 -22 -235 -44 -85 -75 -100
-265 -126 l-33 -5 0 -354 0 -355 800 0 800 0 0 102 0 102 -51 73 c-28 40 -68
112 -90 159 -38 79 -89 251 -89 296 0 11 -14 36 -31 56 -55 62 -59 83 -58 289
l0 188 71 54 c124 95 236 259 287 421 33 104 41 182 41 388 l0 192 -119 0
-119 0 -4 -222 c-4 -194 -7 -232 -26 -288 -32 -97 -89 -186 -168 -265 -305
-305 -818 -219 -1014 170 -58 114 -70 185 -70 413 l0 192 -121 0 -121 0 5
-232z m757 -959 c78 -13 182 -11 275 6 44 8 81 15 81 15 1 0 4 -73 6 -162 4
-151 6 -168 32 -232 l29 -69 -34 -29 c-52 -43 -131 -78 -203 -91 -114 -19
-245 16 -335 91 l-34 29 29 69 c26 64 28 81 32 233 l4 163 32 -7 c17 -3 56
-10 86 -16z"/>
<path d="M3589 2672 c-86 -49 -225 -189 -277 -277 -168 -287 -142 -645 67
-908 61 -77 185 -178 259 -211 l42 -19 0 -469 0 -468 320 0 320 0 0 468 0 469
42 19 c77 34 195 130 258 209 264 333 232 797 -74 1082 -79 74 -190 145 -212
136 -11 -4 -14 -69 -16 -362 l-3 -356 -155 -79 -155 -78 -162 81 -163 81 0
354 c0 293 -2 355 -14 359 -8 3 -42 -11 -77 -31z"/>
<path d="M1036 1770 c-135 -16 -258 -36 -285 -46 -142 -53 -263 -182 -300
-319 -6 -22 -35 -256 -65 -520 -31 -264 -58 -499 -61 -522 l-6 -43 320 0 320
0 3 349 c3 335 4 351 24 377 44 60 67 69 185 72 l109 4 0 339 c0 186 -1 339
-2 338 -2 -1 -110 -14 -242 -29z"/>
<path d="M1375 946 c-101 -44 -125 -178 -46 -257 65 -65 157 -65 222 0 124
124 -15 327 -176 257z"/>
</g>
</svg>
