<?xml version="1.0" standalone="no"?>
<!DOCTYPE svg PUBLIC "-//W3C//DTD SVG 20010904//EN"
 "http://www.w3.org/TR/2001/REC-SVG-20010904/DTD/svg10.dtd">
<svg version="1.0" xmlns="http://www.w3.org/2000/svg"
 width="360.000000pt" height="351.000000pt" viewBox="0 0 360.000000 351.000000"
 preserveAspectRatio="xMidYMid meet">

<g transform="translate(0.000000,351.000000) scale(0.100000,-0.100000)"
fill="#000000" stroke="none">
<path d="M1103 2838 c-747 -744 -1054 -1061 -1084 -1119 -23 -46 -18 -131 12
-190 53 -107 197 -155 304 -101 17 8 353 337 747 730 l717 715 726 -721 c691
-688 727 -722 777 -737 149 -44 298 68 298 224 0 48 -5 66 -32 107 -32 50
-1538 1569 -1681 1695 -42 38 -84 69 -93 69 -8 0 -319 -303 -691 -672z"/>
<path d="M1097 1982 l-697 -697 0 -615 c0 -541 2 -618 16 -638 l15 -22 1368 0
c1313 0 1369 1 1384 18 15 17 17 76 17 643 l0 624 -693 693 c-381 380 -697
692 -702 692 -6 0 -324 -314 -708 -698z m424 -285 c74 -50 98 -129 63 -204
-51 -106 -212 -113 -274 -11 -28 47 -27 125 3 168 46 69 143 91 208 47z m908
-66 c11 -7 11 -27 -3 -127 -31 -214 -65 -387 -80 -402 -23 -23 -46 -7 -46 31
0 46 68 457 80 485 10 23 26 28 49 13z m-910 -328 c20 -21 64 -69 97 -106 l60
-68 88 16 c80 15 89 15 111 1 50 -33 45 -109 -8 -131 -49 -20 -205 -48 -233
-41 -13 4 -39 20 -59 37 l-35 31 0 -101 0 -102 -97 3 -98 3 -1 155 c-2 230 5
287 39 316 44 37 91 33 136 -13z m917 -131 l6 -142 -22 0 c-23 0 -23 0 -17
108 7 105 17 186 23 180 1 -2 6 -67 10 -146z m-1245 11 c11 -13 15 -103 17
-471 l3 -454 -90 3 c-103 5 -138 22 -158 80 -15 44 -18 717 -3 771 6 20 24 48
41 62 27 23 40 26 104 26 55 0 76 -4 86 -17z m1313 -192 c34 -13 2 -21 -92
-24 -90 -2 -110 2 -97 22 7 12 159 14 189 2z m135 -66 c14 -8 14 -42 1 -50
-16 -10 -843 -6 -853 4 -5 5 -6 18 -2 30 5 18 16 21 93 24 135 6 750 0 761 -8z
m-753 -110 c44 -28 48 -49 52 -276 l4 -215 -25 -30 c-34 -39 -102 -42 -141 -5
-25 23 -25 27 -29 190 -5 196 -18 283 -46 321 -11 15 -17 31 -13 35 12 13 173
-3 198 -20z m254 -242 c0 -148 -3 -278 -6 -290 -7 -25 -33 -30 -52 -11 -9 9
-12 87 -12 290 l0 278 35 0 35 0 0 -267z m450 3 c0 -148 -4 -276 -10 -290 -12
-33 -45 -35 -54 -4 -3 13 -6 143 -6 291 l0 267 35 0 35 0 0 -264z m-967 202
c44 -17 66 -56 69 -129 l3 -64 -227 -3 -228 -2 0 108 0 109 178 -4 c97 -3 189
-9 205 -15z m75 -359 c-3 -75 -10 -135 -17 -142 -17 -17 -109 -25 -283 -26
l-158 -1 0 150 0 150 231 0 232 0 -5 -131z"/>
</g>
</svg>
